<svg
  width="147"
  height="129"
  viewBox="0 0 147 129"
  fill="none"
  xmlns="http://www.w3.org/2000/svg"
>
  <path
    d="M142.282 26.7168C140.631 25.9425 138.739 25.854 137.023 26.4708C135.307 27.0876 133.907 28.3591 133.13 30.0056C132.354 31.6522 132.265 33.5388 132.884 35.2506C133.502 36.9623 134.777 38.359 136.428 39.1332C138.079 39.9075 139.97 39.996 141.687 39.3792C143.403 38.7624 144.803 37.4909 145.579 35.8444C146.356 34.1978 146.444 32.3112 145.826 30.5994C145.208 28.8877 143.933 27.491 142.282 26.7168ZM125.86 109.235C125.234 109.059 124.58 109.008 123.935 109.085C123.29 109.162 122.666 109.365 122.099 109.682C121.533 110 121.035 110.426 120.633 110.935C120.232 111.445 119.935 112.028 119.76 112.652C119.584 113.276 119.532 113.929 119.609 114.572C119.686 115.216 119.889 115.838 120.208 116.403C120.526 116.968 120.952 117.465 121.463 117.865C121.974 118.266 122.559 118.562 123.185 118.736C124.449 119.09 125.802 118.927 126.947 118.286C128.091 117.644 128.933 116.576 129.288 115.315C129.641 114.056 129.478 112.708 128.835 111.568C128.192 110.428 127.122 109.589 125.86 109.235V109.235ZM92.2484 77.4247L104.411 88.0007L115.695 87.0324L102.854 75.3117L120.451 67.2687L103.731 60.6428L91.4287 65.7858L131.972 41.0602C130.615 39.8345 129.588 38.289 128.984 36.565L90.9208 65.0194L108.754 47.5787L96.3391 47.1586L99.893 33.7803L91.5975 37.4323L85.6647 60.9105L94.1371 14.5536C92.4545 14.7165 90.7592 14.4194 89.233 13.6943L84.7566 60.7502L83.7375 35.5454L80.0792 29.0317L74.5853 40.1304L60.5323 34.7951L64.7757 47.9731L73.809 59.7996L80.6836 65.9252L35.1587 35.8067C34.6434 40.9878 32.1997 45.7882 28.3098 49.2604L79.56 68.1167L52.4104 64.4231L41.736 69.3031L59.7286 76.4291L47.5224 88.7927L56.2857 89.0925L81.4422 72.2481L38.0921 112.167C39.7227 113.011 41.1316 114.225 42.2053 115.711L82.0964 72.8829L64.0218 102.033L76.0528 96.7444L82.1125 107.543L87.6112 96.4462L101.653 101.775L98.4319 91.7473L91.3949 78.1301L116.696 109.477C117.554 107.987 118.818 106.771 120.342 105.971L92.2484 77.4247ZM95.2252 10.1048C95.8653 9.84694 96.4482 9.46582 96.9407 8.98323C97.4331 8.50065 97.8254 7.92605 98.0952 7.29225C98.3649 6.65844 98.5069 5.97785 98.513 5.28932C98.519 4.6008 98.3891 3.91782 98.1305 3.27939C97.8719 2.64095 97.4898 2.05957 97.006 1.56843C96.5221 1.07729 95.946 0.686013 95.3106 0.416935C94.6751 0.147858 93.9927 0.00625198 93.3024 0.000202392C92.6121 -0.0058472 91.9273 0.123777 91.2872 0.381676C89.9964 0.903284 88.9655 1.914 88.4205 3.19233C87.8755 4.47067 87.8607 5.91237 88.3795 7.20152C88.6378 7.84054 89.0198 8.42256 89.5036 8.91433C89.9874 9.4061 90.5637 9.79798 91.1994 10.0676C91.8351 10.3372 92.5178 10.4793 93.2086 10.4856C93.8994 10.492 94.5846 10.3626 95.2252 10.1048V10.1048ZM34.2409 116.505C33.4287 116.279 32.5797 116.216 31.7429 116.319C30.9061 116.422 30.0981 116.69 29.3657 117.107C28.6332 117.523 27.9908 118.08 27.4755 118.746C26.9602 119.412 26.5824 120.173 26.3637 120.985C26.145 121.797 26.0899 122.644 26.2016 123.478C26.3132 124.312 26.5894 125.115 27.0141 125.841C27.4388 126.568 28.0037 127.203 28.6761 127.711C29.3484 128.218 30.115 128.588 30.9314 128.798C32.5597 129.217 34.2881 128.978 35.7409 128.134C37.1937 127.289 38.2533 125.906 38.6894 124.286C39.1255 122.666 38.9029 120.94 38.0698 119.483C37.2368 118.026 35.8608 116.956 34.2409 116.505V116.505ZM28.4127 33.0861C28.1169 25.2627 21.4963 19.1691 13.6669 19.4705C11.8006 19.5432 9.96695 19.9818 8.27063 20.7613C6.57432 21.5408 5.04855 22.646 3.78047 24.0136C2.51238 25.3813 1.5268 26.9846 0.880009 28.7322C0.233218 30.4798 -0.0621188 32.3373 0.0108621 34.1987C0.32108 41.9981 6.92084 48.1045 14.7695 47.7999C22.6134 47.4969 28.7309 40.9015 28.4127 33.0861V33.0861Z"
    fill="#488EFF"
  />
  <path
    d="M94.7832 26.3801L93.4459 29.9616C93.3861 30.1235 93.3752 30.2994 93.4148 30.4674C93.4544 30.6354 93.5426 30.7881 93.6685 30.9065C93.7944 31.0249 93.9524 31.1038 94.1229 31.1333C94.2934 31.1628 94.4688 31.1417 94.6273 31.0726L106.808 25.7148L103.003 40.0326C102.916 40.3591 102.904 40.7009 102.967 41.0328C103.031 41.3646 103.169 41.6778 103.371 41.9491C103.573 42.2203 103.834 42.4426 104.134 42.5993C104.434 42.756 104.765 42.8431 105.104 42.8542L114.113 43.1588H114.144C114.375 43.1581 114.597 43.0672 114.763 42.9055L117.458 40.2538C117.581 40.1336 117.666 39.9801 117.702 39.8123C117.738 39.6444 117.724 39.4697 117.661 39.3098C117.599 39.1499 117.491 39.0118 117.35 38.9126C117.21 38.8133 117.043 38.7574 116.871 38.7517L108.086 38.4551L112.361 22.3466C112.469 21.9369 112.458 21.5055 112.332 21.1013C112.206 20.6971 111.968 20.3365 111.646 20.0605C110.995 19.509 110.039 19.3727 109.275 19.7158L95.2526 25.8847C95.1452 25.9319 95.0483 26 94.9677 26.0851C94.8871 26.1702 94.8244 26.2705 94.7832 26.3801V26.3801ZM51.409 36.2123C51.4472 36.3302 51.5096 36.4388 51.5922 36.5313L56.0751 41.4899C56.2092 41.6397 56.3911 41.7387 56.5899 41.7702C56.7888 41.8018 56.9924 41.7639 57.1665 41.663C57.3411 41.563 57.4761 41.4062 57.549 41.2189C57.6218 41.0317 57.6281 40.8251 57.5667 40.6338L53.2076 27.0967L70.3902 33.62C70.6473 33.7178 70.9158 33.7643 71.1874 33.7643C72.0521 33.7643 72.8285 33.2849 73.2094 32.5138L79.8189 19.1643L82.9001 24.6487C83.0609 24.9341 83.3663 25.1184 83.6781 25.0976C83.8063 25.0978 83.9331 25.07 84.0494 25.0163C84.1658 24.9625 84.2689 24.8839 84.3516 24.7862C84.4343 24.6884 84.4946 24.5738 84.5282 24.4503C84.5618 24.3269 84.5679 24.1976 84.5461 24.0716L84.5139 18.5551C84.5129 18.4063 84.4742 18.2601 84.4014 18.1303L81.6577 13.2454C81.4656 12.8979 81.1838 12.6079 80.8416 12.4055C80.4993 12.2031 80.109 12.0957 79.7112 12.0944H79.6324C79.2219 12.1046 78.822 12.2267 78.476 12.4474C78.1301 12.6681 77.8513 12.979 77.6698 13.3464L70.0751 28.6903L50.4285 21.234C50.0308 21.0858 49.5996 21.0512 49.1833 21.1342C48.767 21.2172 48.3822 21.4144 48.0721 21.7037C47.7665 21.9962 47.549 22.3682 47.4442 22.7776C47.3394 23.1869 47.3515 23.6174 47.479 24.0203L51.409 36.2123ZM105.768 108.577C105.724 108.461 105.656 108.356 105.569 108.268C105.481 108.18 105.376 108.112 105.26 108.067L91.8032 102.957C91.5489 102.859 91.2786 102.809 91.006 102.809C90.1541 102.809 89.3601 103.303 88.9823 104.063L82.3697 117.412L75.0772 104.42C74.8026 103.934 74.3565 103.566 73.8255 103.388C73.2946 103.211 72.7164 103.236 72.2032 103.46L59.121 109.214C58.9483 109.29 58.8047 109.419 58.7112 109.582L56.4352 113.574C56.3074 113.63 56.1949 113.716 56.1067 113.823C56.0185 113.931 55.9572 114.058 55.928 114.194C55.8987 114.33 55.9022 114.471 55.9383 114.606C55.9744 114.74 56.0419 114.864 56.1354 114.968C56.2289 115.071 56.3456 115.15 56.476 115.2C56.6064 115.249 56.7467 115.267 56.8853 115.252C57.024 115.237 57.1571 115.189 57.2736 115.113C57.3901 115.036 57.4867 114.933 57.5555 114.812L72.1486 108.396L80.5261 123.331C80.9263 124.041 81.6802 124.481 82.4935 124.481H82.5546C82.9644 124.469 83.3635 124.347 83.709 124.127C84.0545 123.906 84.3333 123.597 84.5155 123.23L92.1167 107.883L105.935 113.129C106.093 113.188 106.266 113.201 106.431 113.166C106.597 113.131 106.749 113.048 106.869 112.929C106.989 112.81 107.071 112.659 107.107 112.494C107.143 112.328 107.131 112.157 107.071 111.998L105.768 108.577V108.577ZM30.0538 93.5284C29.7481 93.84 29.5397 94.2334 29.4539 94.6609C29.3681 95.0883 29.4086 95.5314 29.5705 95.9364C29.7324 96.3413 30.0087 96.6906 30.3658 96.9419C30.723 97.1932 31.1456 97.3357 31.5824 97.352L44.9153 97.8024C45.1047 97.8084 45.2911 97.7539 45.4474 97.6469L49.2262 95.0386C49.3657 95.0437 49.5044 95.0157 49.6308 94.9569C49.7573 94.8981 49.868 94.8102 49.9537 94.7004C50.0394 94.5905 50.0978 94.462 50.1239 94.3252C50.1501 94.1885 50.1433 94.0475 50.1041 93.914C50.0649 93.7804 49.9944 93.658 49.8985 93.5569C49.8026 93.4558 49.684 93.3788 49.5524 93.3324C49.4209 93.286 49.2801 93.2714 49.1418 93.2899C49.0035 93.3084 48.8716 93.3593 48.7569 93.4386L36.8657 93.033L49.1796 80.5573C49.7133 80.0186 49.9367 79.2555 49.7791 78.518C49.702 78.1554 49.5364 77.8173 49.297 77.5337C49.0575 77.2502 48.7517 77.0299 48.4065 76.8924L30.0056 69.6045L42.0591 64.0944C42.2337 64.0138 42.377 63.8784 42.4672 63.7089C42.5574 63.5394 42.5894 63.3451 42.5584 63.1557C42.5274 62.9663 42.4351 62.7922 42.2956 62.6601C42.1561 62.5279 41.9771 62.445 41.7858 62.4239L36.4237 61.8612C36.267 61.845 36.1088 61.871 35.9656 61.9366L23.3351 67.7095C22.9341 67.8931 22.596 68.1901 22.3626 68.5636C22.1293 68.9371 22.011 69.3707 22.0225 69.8107C22.034 70.2506 22.1747 70.6775 22.4271 71.0384C22.6796 71.3993 23.0328 71.6783 23.4428 71.8409L43.5877 79.8198L30.0538 93.5284V93.5284ZM138.746 64.7341L118.014 56.5195C117.846 56.4525 117.661 56.4391 117.485 56.481L113.274 57.4814C113.137 57.5136 113.009 57.5783 112.902 57.6702C112.794 57.7621 112.711 57.8785 112.658 58.0094C112.606 58.1402 112.586 58.2818 112.6 58.4221C112.614 58.5624 112.662 58.6972 112.739 58.8152C112.999 59.2144 113.363 59.5142 113.785 59.6809L132.181 66.9705L114.189 75.1931C113.851 75.3485 113.558 75.5845 113.334 75.8802C113.11 76.1759 112.962 76.5222 112.904 76.8883C112.847 77.2544 112.88 77.6291 113.003 77.9791C113.125 78.3292 113.332 78.6437 113.605 78.8948L126.559 90.7197L111.924 91.975C111.741 91.9908 111.567 92.0633 111.428 92.1825C111.288 92.3016 111.189 92.4614 111.145 92.6393C111.101 92.8173 111.114 93.0046 111.181 93.175C111.249 93.3453 111.369 93.4902 111.524 93.5893L115.315 96.0117C115.48 96.1169 115.674 96.1643 115.868 96.1464L132.059 94.7597C132.495 94.7217 132.91 94.5581 133.255 94.2889C133.599 94.0197 133.857 93.6564 133.998 93.2433C134.139 92.8303 134.156 92.3852 134.048 91.9625C133.94 91.5397 133.711 91.1575 133.388 90.8624L119.157 77.8704L138.855 68.8702C139.676 68.4951 140.191 67.6711 140.167 66.7669C140.156 66.3263 140.016 65.8987 139.763 65.5372C139.51 65.1757 139.157 64.8964 138.746 64.7341V64.7341Z"
    fill="#488EFF"
  />
</svg>
